HIERARCHY
ROOT Hips
{
	OFFSET 53.046700 7.421462 52.172298
	CHANNELS 6 Xposition Yposition Zposition Xrotation Yrotation Zrotation
	JOINT spine
	{
		OFFSET 0.000000 -0.393701 6.846371
		CHANNELS 3 Xrotation Yrotation Zrotation
		JOINT spine1
		{
			OFFSET 0.000000 -0.000001 9.496208
			CHANNELS 3 Xrotation Yrotation Zrotation
			JOINT spine2
			{
				OFFSET 0.000000 -0.000002 9.099091
				CHANNELS 3 Xrotation Yrotation Zrotation
				JOINT Neck
				{
					OFFSET 0.000000 -1.113784 23.361198
					CHANNELS 3 Xrotation Yrotation Zrotation
					JOINT Head
					{
						OFFSET 0.000000 -0.000001 7.058022
						CHANNELS 3 Xrotation Yrotation Zrotation
						End Site
						{
							OFFSET 0.000000 5.634187 17.084396
						}
					}
				}
				JOINT RightShoulder
				{
					OFFSET -3.831360 0.533490 9.826309
					CHANNELS 3 Xrotation Yrotation Zrotation
					JOINT RightArm
					{
						OFFSET 0.000000 -0.000002 12.888100
						CHANNELS 3 Xrotation Yrotation Zrotation
						JOINT RightArmRoll
						{
							OFFSET 0.000000 -0.000001 6.506172
							CHANNELS 3 Xrotation Yrotation Zrotation
							JOINT RightForeArm
							{
								OFFSET 0.000000 -0.000003 18.950104
								CHANNELS 3 Xrotation Yrotation Zrotation
								JOINT RightForeArmRoll
								{
									OFFSET 0.000000 -0.000001 7.300919
									CHANNELS 3 Xrotation Yrotation Zrotation
									JOINT RightHand
									{
										OFFSET 0.000000 -0.000002 14.651398
										CHANNELS 3 Xrotation Yrotation Zrotation
										End Site
										{
											OFFSET 0.000000 -0.000000 0.100006
										}
									}
								}
							}
						}
					}
				}
				JOINT LeftShoulder
				{
					OFFSET 3.831360 0.533490 9.826309
					CHANNELS 3 Xrotation Yrotation Zrotation
					JOINT LeftArm
					{
						OFFSET 0.000000 -0.000002 12.888100
						CHANNELS 3 Xrotation Yrotation Zrotation
						JOINT LeftArmRoll
						{
							OFFSET 0.000000 -0.000001 6.506172
							CHANNELS 3 Xrotation Yrotation Zrotation
							JOINT LeftForeArm
							{
								OFFSET 0.000000 -0.000003 18.950104
								CHANNELS 3 Xrotation Yrotation Zrotation
								JOINT LeftForeArmRoll
								{
									OFFSET 0.000000 -0.000001 7.300934
									CHANNELS 3 Xrotation Yrotation Zrotation
									JOINT LeftHand
									{
										OFFSET 0.000000 -0.000002 14.651398
										CHANNELS 3 Xrotation Yrotation Zrotation
										End Site
										{
											OFFSET 0.000000 -0.000000 0.100006
										}
									}
								}
							}
						}
					}
				}
			}
		}
	}
	JOINT RightUpLeg
	{
		OFFSET -6.068371 0.933477 -1.112782
		CHANNELS 3 Xrotation Yrotation Zrotation
		JOINT RightUpLegRoll
		{
			OFFSET 0.000000 -0.000003 17.179604
			CHANNELS 3 Xrotation Yrotation Zrotation
			JOINT RightLeg
			{
				OFFSET 0.000000 0.000004 -21.274300
				CHANNELS 3 Xrotation Yrotation Zrotation
				JOINT RightLegRoll
				{
					OFFSET 0.000000 -0.000004 21.343903
					CHANNELS 3 Xrotation Yrotation Zrotation
					JOINT RightFoot
					{
						OFFSET 0.000000 -0.000003 17.765198
						CHANNELS 3 Xrotation Yrotation Zrotation
						JOINT RightToeBase
						{
							OFFSET 0.000000 -0.000002 14.850800
							CHANNELS 3 Xrotation Yrotation Zrotation
							End Site
							{
								OFFSET 0.006294 0.829003 7.192139
							}
						}
					}
				}
			}
		}
	}
	JOINT LeftUpLeg
	{
		OFFSET 6.068371 0.933477 -1.112782
		CHANNELS 3 Xrotation Yrotation Zrotation
		JOINT LeftUpLegRoll
		{
			OFFSET 0.000000 -0.000003 17.179703
			CHANNELS 3 Xrotation Yrotation Zrotation
			JOINT LeftLeg
			{
				OFFSET 0.000000 -0.000003 21.274200
				CHANNELS 3 Xrotation Yrotation Zrotation
				JOINT LeftLegRoll
				{
					OFFSET 0.000000 -0.000004 21.541199
					CHANNELS 3 Xrotation Yrotation Zrotation
					JOINT LeftFoot
					{
						OFFSET 0.000000 -0.000003 17.567894
						CHANNELS 3 Xrotation Yrotation Zrotation
						JOINT LeftToeBase
						{
							OFFSET 0.000000 -0.000003 14.850800
							CHANNELS 3 Xrotation Yrotation Zrotation
							End Site
							{
								OFFSET -0.028210 0.829004 7.192139
							}
						}
					}
				}
			}
		}
	}
}
MOTION
Frames: 12
Frame Time: 0.041667
53.317806 3.808070 56.307201 24.499013 -1.822930 -6.540429 0.809752 0.086016 0.923402 5.620964 0.194056 1.843851 7.265689 0.216127 1.841394 1.528506 16.186339 -0.783211 15.766226 -13.789760 -0.515054 -9.559054 -42.884931 -10.163968 -54.468354 -149.340051 -92.727174 -0.000002 0.000004 -0.000005 36.542817 -19.049420 10.633736 0.000006 -0.000002 -3.003801 -5.000183 -7.999835 0.000065 -18.561222 61.817262 21.925368 -69.006801 137.929195 115.136116 -0.000003 -0.000002 -0.000001 55.127461 24.810759 -17.862586 0.000001 0.000027 3.000000 -5.000182 7.999711 -0.000054 -103.548748 -177.453506 0.395555 179.999991 -0.000004 -0.912003 93.251432 0.458741 -1.284024 0.000002 -0.000003 1.832390 71.959315 6.204268 3.838058 25.456959 -7.355615 0.000001 -101.830191 170.912315 -4.474403 -0.000003 -0.000004 -0.793922 -94.532625 -2.504939 3.653846 0.000000 0.000006 -2.733709 81.822921 -6.868574 -0.972654 25.458138 7.353429 -0.000238 
53.322906 3.844131 56.241997 24.416497 -1.825444 -6.517425 0.801267 0.090459 0.923213 5.603937 0.202798 1.843371 7.248664 0.224862 1.840820 1.571076 16.158640 -0.798987 15.733283 -13.765519 -0.529496 -9.564588 -42.922630 -10.174062 -54.511887 -149.322921 -92.695701 -0.000002 0.000003 -0.000006 36.475522 -19.082497 10.623645 0.000003 -0.000002 -3.003803 -5.000188 -7.999836 0.000058 -18.523702 61.809203 21.881534 -68.998441 137.925603 115.127947 -0.000002 -0.000001 0.000002 55.165314 24.769351 -17.842440 0.000001 0.000030 2.999997 -5.000185 7.999708 -0.000053 -103.573528 -177.412606 0.392728 179.999991 -0.000006 -0.912003 93.182918 0.469996 -1.271072 0.000002 -0.000003 1.834651 71.921790 6.205487 3.835538 25.456959 -7.355615 -0.000000 -101.853782 170.938803 -4.496270 -0.000004 -0.000004 -0.798089 -94.592512 -2.533540 3.631387 -0.000000 0.000006 -2.737979 81.780314 -6.867708 -0.981660 25.453386 7.353418 0.000381 
53.330906 3.880001 56.179100 24.339212 -1.829513 -6.491253 0.791355 0.095156 0.922666 5.584022 0.212013 1.842191 7.228745 0.234062 1.839522 1.619531 16.127190 -0.816070 15.696548 -13.738415 -0.544875 -9.569138 -42.965612 -10.183266 -54.557779 -149.300299 -92.671932 -0.000001 0.000003 -0.000008 36.410181 -19.115210 10.614880 0.000005 -0.000000 -3.003800 -5.000188 -7.999838 0.000057 -18.480446 61.799661 21.831001 -68.988531 137.920029 115.118645 -0.000002 -0.000001 -0.000002 55.206237 24.725592 -17.821364 -0.000001 0.000027 3.000000 -5.000181 7.999706 -0.000053 -103.604285 -177.367746 0.386268 179.999991 -0.000005 -0.912003 93.113660 0.480614 -1.259069 0.000003 -0.000003 1.836678 71.884538 6.206570 3.833582 25.456960 -7.355616 -0.000000 -101.881820 170.969129 -4.518101 -0.000003 -0.000004 -0.802500 -94.651006 -2.560519 3.610993 0.000001 0.000006 -2.741709 81.739380 -6.867013 -0.989779 25.446218 7.353419 0.001303 
53.336308 3.915641 56.114101 24.266545 -1.834973 -6.462215 0.780154 0.100068 0.921773 5.561558 0.221632 1.840309 7.206294 0.243658 1.837522 1.672910 16.092795 -0.834160 15.656453 -13.708901 -0.561011 -9.572727 -43.012765 -10.191538 -54.604999 -149.274098 -92.652991 -0.000001 0.000004 -0.000007 36.346080 -19.147722 10.607128 0.000007 -0.000004 -3.003803 -5.000187 -7.999839 0.000060 -18.432676 61.789197 21.775169 -68.976564 137.913240 115.107361 -0.000002 -0.000002 0.000003 55.249759 24.680188 -17.799813 0.000000 0.000027 3.000001 -5.000182 7.999707 -0.000054 -103.640191 -177.319429 0.378449 179.999991 -0.000005 -0.911006 93.043849 0.490579 -1.246034 0.000002 -0.000003 1.838508 71.847470 6.207555 3.831999 25.456960 -7.355615 -0.000001 -101.913901 171.002870 -4.540083 -0.000004 -0.000004 -0.807116 -94.708059 -2.585743 3.590688 -0.000001 0.000005 -2.744909 81.699260 -6.866589 -0.996965 25.437534 7.353406 0.002417 
53.343807 3.950191 56.053509 24.198098 -1.841644 -6.430616 0.767856 0.105158 0.920545 5.536887 0.231583 1.837760 7.181622 0.253579 1.834859 1.730310 16.056253 -0.852968 15.613787 -13.677700 -0.577610 -9.575498 -43.063492 -10.198981 -54.654330 -149.243977 -92.639959 -0.000001 0.000003 -0.000005 36.282539 -19.180365 10.600213 0.000005 -0.000002 -3.003803 -5.000188 -7.999838 0.000065 -18.381301 61.778077 21.715135 -68.964768 137.905235 115.096993 -0.000002 -0.000002 0.000001 55.295507 24.633677 -17.778103 0.000004 0.000029 2.999998 -5.000185 7.999708 -0.000056 -103.680680 -177.268052 0.368920 179.999991 -0.000005 -0.909995 92.973723 0.499848 -1.232971 0.000003 -0.000003 1.840150 71.810587 6.208431 3.830892 25.456957 -7.355614 0.000001 -101.949705 171.039657 -4.562315 -0.000003 -0.000004 -0.811890 -94.763909 -2.609381 3.570452 -0.000000 0.000006 -2.747630 81.659365 -6.866310 -1.003351 25.427833 7.353394 0.003670 
53.350006 3.991051 55.992401 24.133469 -1.849348 -6.396781 0.754616 0.110391 0.918992 5.510338 0.241800 1.834563 7.155078 0.263757 1.831540 1.790774 16.018271 -0.872203 15.568795 -13.645465 -0.594497 -9.577454 -43.116679 -10.205554 -54.704300 -149.212531 -92.628908 -0.000001 0.000003 -0.000005 36.218782 -19.213484 10.593913 0.000002 -0.000000 -3.003798 -5.000183 -7.999839 0.000062 -18.327595 61.767067 21.652381 -68.953560 137.896520 115.088209 -0.000002 -0.000002 0.000000 55.342960 24.586697 -17.756607 0.000001 0.000029 2.999995 -5.000186 7.999705 -0.000053 -103.725008 -177.214080 0.357152 179.999991 -0.000006 -0.908998 92.903557 0.508452 -1.221886 0.000002 -0.000003 1.841600 71.773697 6.209272 3.829976 25.456957 -7.355615 0.000001 -101.988924 171.078958 -4.583954 -0.000003 -0.000004 -0.816781 -94.818339 -2.631455 3.550263 -0.000002 0.000006 -2.749899 81.618800 -6.866252 -1.009194 25.417933 7.353385 0.004952 
53.363708 4.022050 55.932999 24.072155 -1.857923 -6.360999 0.740606 0.115731 0.917124 5.482234 0.252210 1.830743 7.126979 0.274120 1.827596 1.853394 15.979660 -0.891578 15.522341 -13.612622 -0.611419 -9.578741 -43.171621 -10.211349 -54.755506 -149.179241 -92.620821 -0.000001 0.000003 -0.000006 36.153953 -19.247186 10.587839 0.000003 -0.000001 -3.003802 -5.000188 -7.999838 0.000058 -18.272547 61.756412 21.588058 -68.944080 137.887176 115.082677 -0.000003 -0.000000 0.000000 55.391745 24.539787 -17.735558 0.000002 0.000028 2.999999 -5.000183 7.999707 -0.000056 -103.772464 -177.157991 0.343600 179.999991 -0.000005 -0.907003 92.833657 0.516473 -1.208770 0.000003 -0.000003 1.842899 71.736903 6.210070 3.829354 25.456953 -7.355615 0.000001 -102.031019 171.120486 -4.605445 -0.000004 -0.000004 -0.821743 -94.871690 -2.652129 3.531159 -0.000003 0.000006 -2.751739 81.576849 -6.866446 -1.014242 25.408439 7.353379 0.006168 
53.368408 4.061282 55.870998 24.013654 -1.867183 -6.323568 0.725992 0.121140 0.914952 5.452929 0.262744 1.826318 7.097672 0.284600 1.823043 1.917243 15.941019 -0.910815 15.474692 -13.580032 -0.628188 -9.579371 -43.227328 -10.216366 -54.807050 -149.146210 -92.612850 -0.000001 0.000003 -0.000004 36.087608 -19.281843 10.581921 0.000007 -0.000002 -3.003800 -5.000185 -7.999839 0.000058 -18.217301 61.746809 21.523519 -68.936123 137.878338 115.079535 -0.000002 -0.000002 -0.000000 55.441137 24.493644 -17.715146 0.000001 0.000029 2.999998 -5.000185 7.999710 -0.000060 -103.822284 -177.100235 0.328050 179.999991 -0.000005 -0.906006 92.764248 0.523785 -1.197635 0.000002 -0.000003 1.844040 71.700102 6.210798 3.829019 25.456959 -7.355616 0.000001 -102.075873 171.163653 -4.626808 -0.000003 -0.000004 -0.826738 -94.923770 -2.671373 3.513129 0.000001 0.000006 -2.753179 81.532781 -6.866811 -1.018925 25.400154 7.353369 0.007238 
53.376408 4.094752 55.817303 23.957560 -1.876945 -6.284823 0.710938 0.126583 0.912486 5.422753 0.273332 1.821303 7.067493 0.295127 1.817910 1.981385 15.903368 -0.929646 15.426578 -13.548023 -0.644590 -9.579462 -43.283083 -10.220651 -54.858549 -149.114054 -92.603992 -0.000001 0.000002 -0.000008 36.018815 -19.317652 10.575783 0.000005 -0.000000 -3.003789 -5.000183 -7.999838 0.000060 -18.162846 61.738524 21.459903 -68.930918 137.870182 115.080737 -0.000002 -0.000001 -0.000002 55.490994 24.448799 -17.696180 0.000003 0.000029 3.000000 -5.000183 7.999705 -0.000053 -103.873845 -177.041208 0.312142 179.999991 -0.000005 -0.903998 92.695625 0.530498 -1.185487 0.000002 -0.000003 1.845051 71.663301 6.211520 3.828684 25.456957 -7.355613 0.000001 -102.122974 171.208158 -4.647383 -0.000003 -0.000004 -0.831718 -94.974723 -2.689285 3.495164 -0.000001 0.000006 -2.754259 81.485871 -6.867355 -1.023096 25.393788 7.353353 0.008060 
53.388607 4.126461 55.751095 23.903369 -1.887049 -6.245043 0.695610 0.132022 0.909735 5.392027 0.283904 1.815733 7.036782 0.305633 1.812215 2.044898 15.867301 -0.947800 15.378379 -13.517450 -0.660409 -9.579061 -43.337772 -10.224207 -54.910059 -149.083700 -92.593289 -0.000001 0.000003 -0.000006 35.946883 -19.354854 10.569183 0.000009 -0.000001 -3.003791 -5.000186 -7.999840 0.000059 -18.110402 61.732308 21.398662 -68.928821 137.863120 115.086611 -0.000002 -0.000001 0.000004 55.540558 24.405893 -17.678563 -0.000001 0.000027 3.000001 -5.000180 7.999709 -0.000051 -103.926424 -176.981430 0.294650 179.999991 -0.000005 -0.902004 92.628007 0.536614 -1.173306 0.000002 -0.000003 1.845930 71.626479 6.212171 3.828540 25.456957 -7.355616 0.000001 -102.171973 171.253511 -4.667344 -0.000002 -0.000004 -0.836643 -95.024577 -2.705839 3.477255 -0.000001 0.000006 -2.755010 81.435328 -6.868079 -1.027099 25.389946 7.353350 0.008552 
53.397308 4.162071 55.692204 23.850691 -1.897304 -6.204537 0.680179 0.137421 0.906710 5.361100 0.294390 1.809623 7.005858 0.316044 1.805972 2.106860 15.833627 -0.965019 15.330836 -13.488754 -0.675430 -9.578268 -43.390703 -10.227107 -54.960681 -149.056379 -92.578740 -0.000001 0.000004 -0.000008 35.871095 -19.393783 10.561897 0.000005 -0.000001 -3.003788 -5.000188 -7.999839 0.000064 -18.061009 61.728531 21.340981 -68.931205 137.857492 115.099056 -0.000002 -0.000002 0.000003 55.589509 24.365559 -17.663030 0.000002 0.000027 2.999997 -5.000182 7.999710 -0.000053 -103.979385 -176.921311 0.276366 179.999991 -0.000004 -0.901006 92.561603 0.542083 -1.162121 0.000002 -0.000003 1.846710 71.589480 6.212903 3.828219 25.456960 -7.355613 0.000001 -102.222551 171.299341 -4.685765 -0.000003 -0.000004 -0.841467 -95.073399 -2.721327 3.460413 0.000001 0.000005 -2.755449 81.380345 -6.869047 -1.030791 25.389341 7.353348 0.008636 
53.407207 4.194511 55.629799 23.798901 -1.907533 -6.163617 0.664815 0.142744 0.903423 5.330297 0.304719 1.802990 6.975056 0.326294 1.799220 2.166349 15.803157 -0.981046 15.284299 -13.462683 -0.689450 -9.577122 -43.440860 -10.229339 -55.010412 -149.032925 -92.559472 -0.000001 0.000003 -0.000004 35.790663 -19.434627 10.553595 0.000004 -0.000001 -3.003789 -5.000184 -7.999839 0.000057 -18.015667 61.727691 21.288074 -68.939312 137.853462 115.119738 -0.000003 -0.000003 0.000004 55.637352 24.328213 -17.649532 0.000000 0.000028 3.000001 -5.000177 7.999706 -0.000053 -104.031813 -176.861342 0.258237 179.999991 -0.000006 -0.898998 92.496826 0.546930 -1.150921 0.000003 -0.000003 1.847399 71.552474 6.213564 3.827888 25.456959 -7.355613 0.000001 -102.274344 171.345144 -4.704030 -0.000003 -0.000004 -0.846150 -95.121196 -2.735503 3.443627 0.000000 0.000006 -2.755619 81.320260 -6.870180 -1.034302 25.392673 7.353357 0.008202 
